<?xml version="1.0" encoding="utf-8"?>
<!-- Generator: Adobe Illustrator 23.0.1, SVG Export Plug-In . SVG Version: 6.00 Build 0)  -->
<svg version="1.1" id="Layer_1" focusable="false" xmlns="http://www.w3.org/2000/svg" xmlns:xlink="http://www.w3.org/1999/xlink"
	 x="0px" y="0px" viewBox="0 0 448 512" style="enable-background:new 0 0 448 512;" xml:space="preserve">
<style type="text/css">
	.st0{fill:#767676;}
</style>
<path class="st0" d="M221.9,488.5c38.5,0,69.7-21.9,69.7-49H152.2C152.2,466.6,183.4,488.5,221.9,488.5z"/>
<path class="st0" d="M402,361.1c-7.4-12-14-20.1-15.3-21.7c-16.2-20.5-24.6-66.4-24.6-116.3c0-74.6-47.8-134.3-112.2-148.9v-20
	c0-17-12.6-30.7-28-30.7s-28,13.8-28,30.7v20C129.4,88.8,81.7,148.5,81.7,223.1c0,40.9-12.3,93.7-24.6,116.3
	c-4.9,9-7.9,14.6-13.8,25.7c-4.5,8.5-5.3,10.2-6.4,12.4c-4.4,9.4-8.1,17.4-9.9,27.9c-0.7,3.9-1.3,9.9-0.9,17.3
	c131.8-0.1,263.6-0.1,395.4-0.2c1.1-9.9,0-17.5-1.2-22.4c-1.6-6.9-3.9-11.6-8.5-21.1C408.5,372,405.1,366.1,402,361.1z"/>
</svg>
