<?xml version="1.0" encoding="utf-8"?>
<!-- Generator: Adobe Illustrator 23.0.1, SVG Export Plug-In . SVG Version: 6.00 Build 0)  -->
<svg version="1.1" id="Layer_1" focusable="false" xmlns="http://www.w3.org/2000/svg" xmlns:xlink="http://www.w3.org/1999/xlink"
	 x="0px" y="0px" viewBox="0 0 448 512" style="enable-background:new 0 0 448 512;" xml:space="preserve">
<style type="text/css">
	.st0{fill:#FFFFFF;}
</style>
<path class="st0" d="M224,392.7c-7.4,0-14.5-2.8-20-8l-0.4-0.4L10.4,191C5,185.6,2,178.3,2,170.6c0-7.5,2.8-14.5,8-20l0.4-0.4
	L33,127.7c5.4-5.4,12.6-8.4,20.4-8.4c7.7,0,14.9,3,20.3,8.4L224,277.4l150.3-149.7c5.4-5.4,12.6-8.4,20.3-8.4c7.4,0,14.5,2.8,20,8
	l0.4,0.4l22.6,22.6c5.4,5.4,8.4,12.7,8.4,20.4c0,7.5-2.8,14.5-8,20l-0.4,0.4L244.2,384.5l-0.2,0.2
	C238.5,389.9,231.4,392.7,224,392.7z"/>
</svg>
