<?xml version="1.0" encoding="utf-8"?>
<!-- Generator: Adobe Illustrator 23.0.1, SVG Export Plug-In . SVG Version: 6.00 Build 0)  -->
<svg version="1.1" id="Layer_1" focusable="false" xmlns="http://www.w3.org/2000/svg" xmlns:xlink="http://www.w3.org/1999/xlink"
	 x="0px" y="0px" viewBox="0 0 448 512" style="enable-background:new 0 0 448 512;" xml:space="preserve">
<style type="text/css">
	.st0{fill:#767676;}
</style>
<path class="st0" d="M224,373.5c-2.4,0-4.6-0.9-6.4-2.6L23.3,176.5c-1.7-1.7-2.6-3.9-2.6-6.4s0.9-4.6,2.6-6.4L46,141.1
	c1.7-1.7,3.9-2.6,6.4-2.6c2.4,0,4.6,0.9,6.3,2.6L224,305.7l165.3-164.6c1.7-1.7,3.9-2.6,6.3-2.6c2.4,0,4.6,0.9,6.4,2.6l22.7,22.7
	c1.7,1.7,2.6,3.9,2.6,6.4s-0.9,4.6-2.6,6.4L230.4,370.9C228.6,372.6,226.4,373.5,224,373.5z"/>
</svg>
