<?xml version="1.0" encoding="utf-8"?>
<!-- Generator: Adobe Illustrator 23.0.1, SVG Export Plug-In . SVG Version: 6.00 Build 0)  -->
<svg version="1.1" id="Layer_1" focusable="false" xmlns="http://www.w3.org/2000/svg" xmlns:xlink="http://www.w3.org/1999/xlink"
	 x="0px" y="0px" viewBox="0 0 512 512" style="enable-background:new 0 0 512 512;" xml:space="preserve">
<style type="text/css">
	.st0{fill:#767676;}
</style>
<path class="st0" d="M256,42.2c-119.9,0-217,93.1-217,208c0,49.6,18.1,95,48.3,130.7c-10.6,50.4-46,95.3-46.5,95.8
	c-1.9,2.3-2.4,5.7-1.3,8.7c1.1,3,3.5,4.8,6.2,4.8c56.2,0,98.3-31.8,119.2-51.4c27.7,12.3,58.5,19.4,91,19.4
	c119.9,0,217-93.1,217-208S375.9,42.2,256,42.2z M147.5,282.2c-15,0-27.1-14.3-27.1-32s12.1-32,27.1-32s27.1,14.3,27.1,32
	S162.5,282.2,147.5,282.2z M256,282.2c-15,0-27.1-14.3-27.1-32s12.1-32,27.1-32c15,0,27.1,14.3,27.1,32S271,282.2,256,282.2z
	 M364.5,282.2c-15,0-27.1-14.3-27.1-32s12.1-32,27.1-32s27.1,14.3,27.1,32S379.5,282.2,364.5,282.2z"/>
</svg>
